# xmcd
#
# Track frame offsets: 
#        150
#        12857
#        25589
#        36614
#        49561
#        59771
#        70525
#        79366
#        89229
#        100498
#        110430
#        120388
#        132051
#        143095
#        154412
#        166009
#        183391
#        195134
#        207125
#        223293
#        233515
#
# Disc length: 3260 seconds
#
# Revision: 0
# Processed by: cddbd v1.5.2PL0 Copyright (c) Steve Scherf et al.
# Submitted via: ExactAudioCopyFreeDBPlugin 1.0
#
DISCID=210cba15
DTITLE=John Lee Hooker - The Big Soul Of John Lee Hooker
DYEAR=2016
DGENRE=Blues
TTITLE0=San Francisco
TTITLE1=Take A Look At Yourself
TTITLE2=Send Me Your Pillow
TTITLE3=She Shot Me Down
TTITLE4=I Love Her
TTITLE5=Old Time Shimmy
TTITLE6=You Know I Love You
TTITLE7=Big Soul
TTITLE8=Good Rocking Mama
TTITLE9=Onions
TTITLE10=No One Told Me
TTITLE11=Boom Boom
TTITLE12=You Gotta Shake It Up And Go
TTITLE13=You've Taken My Woman
TTITLE14=What Do You Say
TTITLE15=Process
TTITLE16=Little Wheel
TTITLE17=I'm Mad Again
TTITLE18=Thelma
TTITLE19=Run On
TTITLE20=Let's Make It
EXTD=
EXTT0=
EXTT1=
EXTT2=
EXTT3=
EXTT4=
EXTT5=
EXTT6=
EXTT7=
EXTT8=
EXTT9=
EXTT10=
EXTT11=
EXTT12=
EXTT13=
EXTT14=
EXTT15=
EXTT16=
EXTT17=
EXTT18=
EXTT19=
EXTT20=
PLAYORDER=
